<?xml version="1.0" encoding="iso-8859-1"?>
<!-- Generator: Adobe Illustrator 18.0.0, SVG Export Plug-In . SVG Version: 6.00 Build 0)  -->
<!DOCTYPE svg PUBLIC "-//W3C//DTD SVG 1.1//EN" "http://www.w3.org/Graphics/SVG/1.1/DTD/svg11.dtd">
<svg version="1.1" id="Layer_5" xmlns="http://www.w3.org/2000/svg" xmlns:xlink="http://www.w3.org/1999/xlink" x="0px" y="0px"
	 viewBox="0 0 28 28" style="enable-background:new 0 0 112 112;" xml:space="preserve">
<g>
	<path style="fill:#FFFFFF;" d="M22.8,21.7l-0.4,0.4l-0.2,0.2c-0.2,0.2-0.7,0.6-1.3,0.8c-0.4,0.1-0.7,0.2-1.1,0.3
		c0,0-4.6,0.4-10.1-5.2C5,13.4,4.2,10.7,4.6,8c0-0.4,0.1-0.7,0.3-1.1c0.2-0.6,0.6-1.1,0.8-1.3l0.6-0.6c0.3-0.3,0.7-0.3,0.9,0
		l3.2,3.2c0.2,0.2,0.2,0.7,0,0.9l-2.1,2.1l0.2,0.3c0.1,0.2,0.2,0.4,0.3,0.6c0.6,1.1,1.4,2.5,3,4.1c1.5,1.6,3,2.4,4.1,2.9
		c0.2,0.1,0.4,0.2,0.6,0.4l0.3,0.2l2.1-2.1c0.3-0.3,0.7-0.3,0.9,0l3.2,3.2C23.1,21,23.1,21.4,22.8,21.7L22.8,21.7z"/>
	<g>
		<defs>
			<rect id="SVGID_3_" x="3.5" y="3.9" width="20.8" height="20.8"/>
		</defs>
		<clipPath id="SVGID_2_">
			<use xlink:href="#SVGID_3_"  style="overflow:visible;"/>
		</clipPath>
		<path style="clip-path:url(#SVGID_2_);fill:#020202;" d="M23.6,20.1l-3.2-3.2c-0.6-0.6-1.7-0.6-2.3,0l-1.6,1.6
			c-0.1-0.1-0.2-0.1-0.3-0.2c-1-0.6-2.4-1.3-3.8-2.8c-1.5-1.5-2.2-2.8-2.8-3.8c-0.1-0.1-0.1-0.2-0.2-0.3l1.1-1.1L11,9.8
			c0.7-0.7,0.7-1.7,0-2.3L7.8,4.3c-0.6-0.6-1.7-0.6-2.3,0L4.6,5.3l0,0C4.3,5.7,4.1,6.1,3.9,6.6C3.7,7,3.6,7.5,3.6,7.9
			C3.1,11.4,4.7,14.5,9,18.8c5.9,5.9,10.7,5.5,10.9,5.5c0.4-0.1,0.9-0.2,1.3-0.3c0.5-0.2,0.9-0.4,1.3-0.7l0,0l0.9-0.9
			C24.2,21.7,24.2,20.7,23.6,20.1L23.6,20.1z M22.8,21.7l-0.4,0.4l-0.2,0.2c-0.2,0.2-0.7,0.6-1.3,0.8c-0.4,0.1-0.7,0.2-1.1,0.3
			c0,0-4.6,0.4-10.1-5.2C5,13.4,4.2,10.7,4.6,8c0-0.4,0.1-0.7,0.3-1.1c0.2-0.6,0.6-1.1,0.8-1.3l0.6-0.6c0.3-0.3,0.7-0.3,0.9,0
			l3.2,3.2c0.2,0.2,0.2,0.7,0,0.9l-2.1,2.1l0.2,0.3c0.1,0.2,0.2,0.4,0.3,0.6c0.6,1.1,1.4,2.5,3,4.1c1.5,1.6,3,2.4,4.1,2.9
			c0.2,0.1,0.4,0.2,0.6,0.4l0.3,0.2l2.1-2.1c0.3-0.3,0.7-0.3,0.9,0l3.2,3.2C23.1,21,23.1,21.4,22.8,21.7L22.8,21.7z M22.8,21.7"/>
	</g>
</g>
</svg>
