<?xml version="1.0" encoding="iso-8859-1"?>
<!-- Generator: Adobe Illustrator 18.0.0, SVG Export Plug-In . SVG Version: 6.00 Build 0)  -->
<!DOCTYPE svg PUBLIC "-//W3C//DTD SVG 1.1//EN" "http://www.w3.org/Graphics/SVG/1.1/DTD/svg11.dtd">
<svg version="1.1" id="Layer_5" xmlns="http://www.w3.org/2000/svg" xmlns:xlink="http://www.w3.org/1999/xlink" x="0px" y="0px"
	 viewBox="0 0 28 28" style="enable-background:new 0 0 112 112;" xml:space="preserve">
<g>
	<path style="fill-rule:evenodd;clip-rule:evenodd;" d="M20.2,18.6c-0.2-0.1-0.4,0-0.5,0.2c-0.8,1-2.2,1.2-2.7,1.3
		c-0.6,0.1-1.1-0.1-1.3-0.4c-0.4-0.4-0.3-1-0.3-1c0,0,0,0,0-0.1v-5.1h4.4c0.3,0,0.5-0.2,0.5-0.5V9.7c0-0.3-0.2-0.5-0.5-0.5h-4.6v-5
		c0-0.3-0.2-0.5-0.5-0.5h-2.8c-0.3,0-0.5,0.2-0.5,0.5c0,4.7-3.6,4.9-3.7,4.9c-0.3,0-0.5,0.2-0.5,0.5v3.4c0,0.3,0.2,0.5,0.5,0.5
		l1.7,0v5.3c0,3.4,1.3,5.2,4.1,5.5c0.4,0.1,0.9,0.1,1.3,0.1c0.8,0,1.6,0,2.1-0.1c2.3-0.3,3.4-1.5,3.5-1.6c0.1-0.1,0.1-0.2,0.1-0.3
		v-3.4C20.5,18.9,20.3,18.7,20.2,18.6L20.2,18.6z M19.5,22.3c-0.3,0.3-1.3,1-2.8,1.2c-0.8,0.1-2.4,0.2-3.1,0.1
		c-1.5-0.2-3.2-0.9-3.2-4.6v-5.8c0-0.3-0.2-0.5-0.5-0.5l-1.7,0V10c1.1-0.2,4-1.2,4.2-5.3h1.9v5c0,0.3,0.2,0.5,0.5,0.5h4.6v2.4h-4.4
		c-0.3,0-0.5,0.2-0.5,0.5v5.5c0,0.2,0,1.1,0.5,1.7c0.4,0.4,1,0.7,1.7,0.7c0.1,0,0.2,0,0.4,0c0.5,0,1.6-0.2,2.5-0.9L19.5,22.3
		L19.5,22.3z M19.5,22.3"/>
	<path style="fill-rule:evenodd;clip-rule:evenodd;fill:#FFFFFF;" d="M19.5,22.3c-0.3,0.3-1.3,1-2.8,1.2c-0.8,0.1-2.4,0.2-3.1,0.1
		c-1.5-0.2-3.2-0.9-3.2-4.6v-5.8c0-0.3-0.2-0.5-0.5-0.5l-1.7,0V10c1.1-0.2,4-1.2,4.2-5.3h1.9v5c0,0.3,0.2,0.5,0.5,0.5h4.6v2.4h-4.4
		c-0.3,0-0.5,0.2-0.5,0.5v5.5c0,0.2,0,1.1,0.5,1.7c0.4,0.4,1,0.7,1.7,0.7c0.1,0,0.2,0,0.4,0c0.5,0,1.6-0.2,2.5-0.9L19.5,22.3
		L19.5,22.3z"/>
</g>
</svg>
