<?xml version="1.0" encoding="iso-8859-1"?>
<!-- Generator: Adobe Illustrator 18.0.0, SVG Export Plug-In . SVG Version: 6.00 Build 0)  -->
<!DOCTYPE svg PUBLIC "-//W3C//DTD SVG 1.1//EN" "http://www.w3.org/Graphics/SVG/1.1/DTD/svg11.dtd">
<svg version="1.1" id="Layer_5" xmlns="http://www.w3.org/2000/svg" xmlns:xlink="http://www.w3.org/1999/xlink" x="0px" y="0px"
	 viewBox="0 0 28 28" style="enable-background:new 0 0 112 112;" xml:space="preserve">
<g>
	<path d="M22.6,18.1c0.3-0.2,0.4-0.6,0.4-1v-6c0-0.4,0-0.8-0.4-1l-8.5-5.7c-0.2-0.1-0.4-0.2-0.6-0.2c-0.2,0-0.5,0.1-0.7,0.2
		l-8.3,5.7c-0.3,0.2-0.6,0.6-0.6,1v6.1c0,0.4,0.3,0.8,0.6,1l8.3,5.5c0.4,0.3,0.9,0.3,1.2,0L22.6,18.1z M22,16.2L18.7,14l3.3-2.2
		V16.2z M21.6,10.7l-3.9,2.6l-3.4-2.4l0-5.3L21.6,10.7z M13,5.6v5.2l-3.4,2.4l-3.8-2.5L13,5.6z M5,11.8l3.2,2.1L5,16.1V11.8z
		 M13,22.2l-7.2-4.9l3.8-2.6L13,17V22.2z M10.7,13.9l2.7-1.9l3.1,2l-2.8,1.9L10.7,13.9z M15,17l3-2.2l4.1,2.6L15,22.2V17z"/>
	<polygon style="fill:#FFFFFF;" points="22,16.2 18.7,14 22,11.8 	"/>
	<polygon style="fill:#FFFFFF;" points="21.6,10.7 17.6,13.3 14.3,10.8 14.3,5.6 	"/>
	<polygon style="fill:#FFFFFF;" points="13,5.6 13,10.8 9.6,13.2 5.8,10.6 	"/>
	<polygon style="fill:#FFFFFF;" points="5,11.8 8.2,13.9 5,16.1 	"/>
	<polygon style="fill:#FFFFFF;" points="13,22.2 5.8,17.3 9.6,14.7 13,17 	"/>
	<polygon style="fill:#FFFFFF;" points="10.7,13.9 13.4,12 16.5,14 13.7,15.9 	"/>
	<polygon style="fill:#FFFFFF;" points="15,17 18,14.8 22.1,17.4 15,22.2 	"/>
</g>
</svg>
