<?xml version="1.0" encoding="iso-8859-1"?>
<!-- Generator: Adobe Illustrator 18.0.0, SVG Export Plug-In . SVG Version: 6.00 Build 0)  -->
<!DOCTYPE svg PUBLIC "-//W3C//DTD SVG 1.1//EN" "http://www.w3.org/Graphics/SVG/1.1/DTD/svg11.dtd">
<svg version="1.1" id="Layer_5" xmlns="http://www.w3.org/2000/svg" xmlns:xlink="http://www.w3.org/1999/xlink" x="0px" y="0px"
	 viewBox="0 0 28 28" style="enable-background:new 0 0 112 112;" xml:space="preserve">
<g>
	<path style="fill-rule:evenodd;clip-rule:evenodd;" d="M8.2,9.5H4.4c-0.3,0-0.5,0.2-0.5,0.5v13.4c0,0.3,0.2,0.5,0.5,0.5h3.8
		c0.3,0,0.5-0.2,0.5-0.5V10C8.7,9.8,8.5,9.5,8.2,9.5L8.2,9.5z M7.7,22.9H4.8V10.5h2.9V22.9z M18.8,9.4c-1.9,0-3.1,0.8-3.8,1.5L15,10
		c0-0.2-0.2-0.4-0.5-0.4h0L11,9.6c-0.1,0-0.2,0.1-0.3,0.1c-0.1,0.1-0.1,0.2-0.1,0.3c0,1,0,2.1,0,3.4v9.9c0,0.3,0.2,0.5,0.5,0.5h3.8
		c0.3,0,0.5-0.2,0.5-0.5v-7.7c0-0.4,0-0.7,0.1-0.8c0.2-0.6,1-1.2,1.9-1.2c1.2,0,1.9,0.9,1.9,2.4v7.4c0,0.3,0.2,0.5,0.5,0.5h3.8
		c0.3,0,0.5-0.2,0.5-0.5v-7.9C24,11.7,22,9.4,18.8,9.4L18.8,9.4z M23,23h-2.8V16c0-2-1.1-3.3-2.8-3.3c-1.4,0-2.5,0.9-2.8,1.8
		c-0.1,0.3-0.2,0.7-0.2,1.2V23h-2.9v-9.4c0-1.1,0-2.1,0-3l2.6,0l0.1,1.5c0,0.2,0.2,0.4,0.5,0.4h0.1c0.2,0,0.3-0.1,0.4-0.2
		c0.3-0.4,1.4-1.9,3.7-1.9c2.6,0,4.2,1.9,4.2,5.2V23z M6.4,4C4.9,4,3.8,5,3.8,6.5C3.8,7.9,4.9,9,6.4,9c1.6,0,2.7-1.1,2.7-2.5
		C9,5,8,4,6.4,4L6.4,4z M6.4,8.1c-1,0-1.7-0.6-1.7-1.6c0-0.9,0.7-1.6,1.7-1.6c1,0,1.7,0.6,1.7,1.6C8.1,7.4,7.4,8.1,6.4,8.1L6.4,8.1z
		 M6.4,8.1"/>
	<rect x="4.8" y="10.5" style="fill-rule:evenodd;clip-rule:evenodd;fill:#FFFFFF;" width="2.9" height="12.4"/>
	<path style="fill-rule:evenodd;clip-rule:evenodd;fill:#FFFFFF;" d="M23,23h-2.8V16c0-2-1.1-3.3-2.8-3.3c-1.4,0-2.5,0.9-2.8,1.8
		c-0.1,0.3-0.2,0.7-0.2,1.2V23h-2.9v-9.4c0-1.1,0-2.1,0-3l2.6,0l0.1,1.5c0,0.2,0.2,0.4,0.5,0.4h0.1c0.2,0,0.3-0.1,0.4-0.2
		c0.3-0.4,1.4-1.9,3.7-1.9c2.6,0,4.2,1.9,4.2,5.2V23z"/>
	<path style="fill-rule:evenodd;clip-rule:evenodd;fill:#FFFFFF;" d="M6.4,8.1c-1,0-1.7-0.6-1.7-1.6c0-0.9,0.7-1.6,1.7-1.6
		c1,0,1.7,0.6,1.7,1.6C8.1,7.4,7.4,8.1,6.4,8.1L6.4,8.1z"/>
</g>
</svg>
