<?xml version="1.0" encoding="iso-8859-1"?>
<!-- Generator: Adobe Illustrator 18.0.0, SVG Export Plug-In . SVG Version: 6.00 Build 0)  -->
<!DOCTYPE svg PUBLIC "-//W3C//DTD SVG 1.1//EN" "http://www.w3.org/Graphics/SVG/1.1/DTD/svg11.dtd">
<svg version="1.1" id="Layer_5" xmlns="http://www.w3.org/2000/svg" xmlns:xlink="http://www.w3.org/1999/xlink" x="0px" y="0px"
	 viewBox="0 0 28 28" style="enable-background:new 0 0 112 112;" xml:space="preserve">
<g>
	<g>
		<defs>
			<rect id="SVGID_1_" x="3.7" y="7.1" width="20.5" height="13.4"/>
		</defs>
		<clipPath id="SVGID_2_">
			<use xlink:href="#SVGID_1_"  style="overflow:visible;"/>
		</clipPath>
		<path style="clip-path:url(#SVGID_2_);" d="M22.7,7.1H5.3c-0.9,0-1.7,0.7-1.7,1.7v9.9c0,0.9,0.7,1.7,1.7,1.7h17.3
			c0.9,0,1.7-0.7,1.7-1.7V8.8C24.3,7.9,23.6,7.1,22.7,7.1L22.7,7.1z M22.2,8L14,15.1L5.8,8H22.2z M23.5,18.7c0,0.5-0.3,0.8-0.8,0.8
			H5.3c-0.5,0-0.8-0.4-0.8-0.8V8.8c0-0.3,0.1-0.4,0.2-0.6l9.2,8l9.2-8c0.2,0.2,0.2,0.3,0.2,0.6V18.7z M23.5,18.7"/>
	</g>
	<polygon style="fill:#FFFFFF;" points="22.2,8 14,15.1 5.8,8 	"/>
	<path style="fill:#FFFFFF;" d="M23.5,18.7c0,0.5-0.3,0.8-0.8,0.8H5.3c-0.5,0-0.8-0.4-0.8-0.8V8.8c0-0.3,0.1-0.4,0.2-0.6l9.2,8
		l9.2-8c0.2,0.2,0.2,0.3,0.2,0.6V18.7z"/>
</g>
</svg>
