<?xml version="1.0" encoding="iso-8859-1"?>
<!-- Generator: Adobe Illustrator 18.0.0, SVG Export Plug-In . SVG Version: 6.00 Build 0)  -->
<!DOCTYPE svg PUBLIC "-//W3C//DTD SVG 1.1//EN" "http://www.w3.org/Graphics/SVG/1.1/DTD/svg11.dtd">
<svg version="1.1" id="Layer_5" xmlns="http://www.w3.org/2000/svg" xmlns:xlink="http://www.w3.org/1999/xlink" x="0px" y="0px"
	 viewBox="0 0 28 28" style="enable-background:new 0 0 112 112;" xml:space="preserve">
<g>
	<polygon style="fill:#FFFFFF;" points="14,4.4 23.2,11.7 23.1,24 16.2,24 16.3,18.6 12,18.5 12,24 5,24 5,11.6 	"/>
	<g>
		<defs>
			<rect id="SVGID_5_" x="2.6" y="3.8" width="22.6" height="20.4"/>
		</defs>
		<clipPath id="SVGID_2_">
			<use xlink:href="#SVGID_5_"  style="overflow:visible;"/>
		</clipPath>
		<path style="clip-path:url(#SVGID_2_);" d="M15.7,23.7c0,0.3,0.2,0.5,0.5,0.5H23c0.3,0,0.5-0.2,0.5-0.5v-9c0-0.3-0.2-0.5-0.5-0.5
			c-0.3,0-0.5,0.2-0.5,0.5v8.5h-5.9v-4.7c0-0.3-0.2-0.5-0.5-0.5h-4.5c-0.3,0-0.5,0.2-0.5,0.5v4.8h-6v-9.2c0-0.3-0.2-0.5-0.5-0.5
			s-0.5,0.2-0.5,0.5v9.7c0,0.3,0.2,0.5,0.5,0.5h6.9c0.3,0,0.5-0.2,0.5-0.5v-4.8h3.5V23.7z M15.7,23.7"/>
		<path style="clip-path:url(#SVGID_2_);" d="M25.1,12.7L14.2,3.9c-0.2-0.1-0.4-0.1-0.6,0L2.8,12.4c-0.2,0.2-0.2,0.4-0.1,0.6
			c0.2,0.2,0.4,0.2,0.6,0.1l10.5-8.3l10.6,8.6c0.1,0.1,0.2,0.1,0.3,0.1c0.1,0,0.3-0.1,0.4-0.2C25.3,13.2,25.3,12.9,25.1,12.7
			L25.1,12.7z M25.1,12.7"/>
	</g>
</g>
</svg>
