<?xml version="1.0" encoding="iso-8859-1"?>
<!-- Generator: Adobe Illustrator 18.0.0, SVG Export Plug-In . SVG Version: 6.00 Build 0)  -->
<!DOCTYPE svg PUBLIC "-//W3C//DTD SVG 1.1//EN" "http://www.w3.org/Graphics/SVG/1.1/DTD/svg11.dtd">
<svg version="1.1" id="Layer_5" xmlns="http://www.w3.org/2000/svg" xmlns:xlink="http://www.w3.org/1999/xlink" x="0px" y="0px"
	 viewBox="0 0 28 28" style="enable-background:new 0 0 28 28;" xml:space="preserve">
<g>
	<ellipse style="fill:#FFFFFF;" cx="13.9" cy="14" rx="9.8" ry="9.6"/>
	<g>
		<defs>
			<rect id="SVGID_9_" x="2.6" y="3.9" width="22.7" height="20.5"/>
		</defs>
		<clipPath id="SVGID_2_">
			<use xlink:href="#SVGID_9_"  style="overflow:visible;"/>
		</clipPath>
		<path style="clip-path:url(#SVGID_2_);" d="M22.3,18c-0.2,0.4-0.3,0.6-0.5,0.9c-0.8-0.2-2.2-0.5-3.3-0.7c0.1-0.4,0.1-0.4,0.2-0.9
			l0,0l-0.5-1.7l-0.1,0.7c-0.1,0.6-0.2,1.2-0.3,1.8c-1.3-0.2-2.5-0.2-3.6-0.3v-0.9l-0.4-1.3c-0.4,1.5-0.3,1-0.3,2.2l-1.4,0
			c-0.9,0-1.7,0.1-2.3,0.2l0-0.1c-0.1-0.6-0.2-1.2-0.3-1.8l-0.1-0.7l-0.5,1.6l0,0C9,17.6,9,17.8,9.1,18.2C8,18.3,7,18.5,5.9,18.9
			c-0.2-0.3-0.3-0.5-0.5-0.9l0-0.1H4.6l0.1,0.2c3.6,7.9,14.8,7.9,18.4,0l0.1-0.2L22.3,18L22.3,18z M14.2,23.3v-4.7
			c1,0,2.2,0.1,3.4,0.2c-0.3,1.4-0.9,2.9-1.4,4.2C15.5,23.2,14.9,23.3,14.2,23.3L14.2,23.3z M17.2,22.7c0.1-0.4,0.8-1.9,1.2-3.8
			c0.9,0.1,1.9,0.3,3,0.6C20.3,21,18.9,22,17.2,22.7L17.2,22.7z M10.4,22.7c-1.6-0.7-3-1.7-4.1-3.2c0.8-0.2,1.9-0.5,2.9-0.6
			C9.5,20.2,10,21.4,10.4,22.7L10.4,22.7z M13.5,18.6v4.7c-0.7,0-1.4-0.1-2.2-0.3c-0.5-1.2-1-2.8-1.4-4.2
			C11.1,18.7,12.4,18.6,13.5,18.6L13.5,18.6z M13.5,18.6"/>
	</g>
	<path d="M23.7,11.7c-1.1-4.6-5.1-7.7-9.8-7.7c-4.6,0-8.7,3.2-9.8,7.7l0,0l0.4,1.7l0.1-0.7C4.9,11.3,5.3,10.1,6,9
		c0.8,0.2,1.9,0.4,2.9,0.6c-0.1,0.7-0.2,1.3-0.2,2h0.7c0-0.6,0.1-1.3,0.2-1.9c1.3,0.2,2.6,0.3,3.9,0.3v1.6h0.7V9.9
		c1.3,0,2.6-0.1,3.8-0.2c0.1,0.6,0.1,1.1,0.2,1.7l0,0.1H19l0-0.2c-0.1-0.7-0.1-1.4-0.2-1.8c0.9-0.1,2.1-0.4,2.9-0.6
		c0.7,1.1,1.2,2.3,1.4,3.7l0.1,0.7L23.7,11.7L23.7,11.7z M21.3,8.3c-0.9,0.2-1.8,0.4-2.6,0.5c-0.2-1.3-0.4-2-0.8-3.3
		C19.2,6.2,20.2,7,21.3,8.3L21.3,8.3z M18,9c-1.2,0.2-2.5,0.2-3.7,0.2V4.7c0.9,0,1.8,0.2,2.7,0.5l0,0l0,0C17.4,6.3,17.8,7.9,18,9
		L18,9z M9.8,5.6C9.5,6.6,9.3,7.5,9,8.8C8.1,8.7,7.3,8.5,6.5,8.3C7.5,7.1,8.5,6.3,9.8,5.6L9.8,5.6z M10.7,5.2
		c0.8-0.3,1.8-0.5,2.8-0.6v4.5c-1.4,0-2.5-0.1-3.8-0.3C10,7.7,10.3,6.4,10.7,5.2L10.7,5.2z M10.7,5.2"/>
	<path d="M5.7,14.8c0.2-0.5,0.3-1,0.4-1.6h0c0.1,0.6,0.3,1.1,0.4,1.6l0.8,2.4h0.8l1.6-5H8.9l-0.7,2.5c-0.2,0.6-0.3,1.1-0.4,1.6h0
		c-0.1-0.5-0.3-1-0.4-1.6l-0.8-2.5H5.8L5,14.7c-0.2,0.5-0.3,1.1-0.4,1.6h0c-0.1-0.5-0.2-1-0.4-1.6l-0.7-2.5H2.6l1.5,5h0.8L5.7,14.8z
		 M5.7,14.8"/>
	<path d="M15.5,16.2L15.5,16.2c-0.1-0.5-0.3-1-0.5-1.6l-0.8-2.5h-0.8l-0.8,2.5c-0.2,0.5-0.3,1.1-0.4,1.6h0c-0.1-0.5-0.2-1-0.4-1.6
		l-0.7-2.5h-0.9l1.5,5h0.8l0.8-2.4c0.2-0.5,0.3-1,0.5-1.6h0c0.1,0.6,0.3,1.1,0.4,1.6l0.8,2.4h0.8l1.6-5h-0.9l-0.7,2.5
		C15.7,15.2,15.6,15.7,15.5,16.2L15.5,16.2z M15.5,16.2"/>
	<path d="M24.3,12.1l-0.7,2.5c-0.2,0.6-0.3,1.1-0.4,1.6h0c-0.1-0.5-0.3-1-0.4-1.6l-0.8-2.5h-0.8l-0.8,2.5c-0.2,0.5-0.3,1.1-0.4,1.6
		h0c-0.1-0.5-0.2-1-0.4-1.6l-0.7-2.5H18l1.5,5h0.8l0.8-2.4c0.2-0.5,0.3-1,0.5-1.6h0c0.1,0.6,0.3,1.1,0.4,1.6l0.8,2.4h0.8l1.6-5H24.3
		z M24.3,12.1"/>
</g>
</svg>
